<?xml version="1.0" encoding="iso-8859-1"?>
<!-- Uploaded to: SVG Repo, www.svgrepo.com, Generator: SVG Repo Mixer Tools -->
<svg xmlns="http://www.w3.org/2000/svg" xmlns:xlink="http://www.w3.org/1999/xlink" version="1.1" id="Layer_1"  viewBox="0 0 437.608 437.608" xml:space="preserve" width="512" height="512">
<g>
	<g>
		<path style="fill:#77BC1F;" d="M362.043,225.228c-32.569-7.52-48.189-45.438-38.544-87.202    c7.521-32.569,44.918-90.333,86.673-121.206c23.992,46.05,32.271,114.367,24.75,146.936    C425.28,205.522,394.614,232.748,362.043,225.228z"/>
		<path style="opacity:0.2;fill:#218649;" d="M410.172,16.82c23.992,46.05,32.271,114.367,24.75,146.936    c-9.642,41.766-40.308,68.991-72.879,61.472L410.172,16.82z"/>
		<path style="fill:#00953A;" d="M420.266,94.539c-2.195-3.514-6.822-4.584-10.335-2.387l-11.054,6.906l7.616-32.981    c0.932-4.036-1.584-8.063-5.62-8.995c-4.036-0.931-8.063,1.584-8.995,5.62l-7.616,32.981l-6.907-11.055    c-2.194-3.512-6.822-4.583-10.335-2.386c-3.513,2.194-4.581,6.821-2.386,10.335l14.855,23.775l-8.289,35.893l-10.802-17.288    c-2.194-3.514-6.822-4.584-10.334-2.387c-3.513,2.194-4.581,6.821-2.386,10.334l18.75,30.01l-6.557,28.392    c-0.932,4.036,1.584,8.063,5.62,8.995c0.568,0.131,1.135,0.194,1.694,0.194c3.414,0,6.5-2.347,7.301-5.814l6.557-28.395    l30.008-18.748c3.513-2.194,4.581-6.821,2.387-10.334c-2.195-3.514-6.822-4.584-10.335-2.387l-17.287,10.801l8.289-35.893    l23.775-14.854C421.392,102.678,422.461,98.051,420.266,94.539z"/>
	</g>
	<g>
		<circle style="fill:#FF9500;" cx="222.828" cy="233.746" r="187.043"/>
		<g>
			<path style="fill:#FFC843;" d="M189.002,243.664H76.621c-7.169,0-12.979,5.811-12.979,12.979c0,0.443,0.022,0.885,0.065,1.318     c0.021,0.2,0.025,0.37,0.019,0.513c4.043,26.232,14.418,50.373,29.517,70.817c2.394,2.852,5.98,4.667,9.995,4.667     c3.318,0,6.337-1.247,8.64-3.288l80.101-80.102c0.004-0.005,0.001-0.005,0.008-0.012c0.686-0.732,1.107-1.717,1.107-2.8     C193.095,245.497,191.262,243.664,189.002,243.664z"/>
			<path style="fill:#FFC843;" d="M212.911,267.54v112.382c0,7.168-5.811,12.978-12.978,12.978c-0.444,0-0.884-0.023-1.317-0.066     c-0.201-0.021-0.371-0.024-0.513-0.018c-26.232-4.044-50.374-14.42-70.818-29.517c-2.852-2.396-4.668-5.981-4.668-9.997     c0-3.317,1.248-6.336,3.288-8.64l80.102-80.099c0.005-0.005,0.007-0.003,0.013-0.011c0.732-0.685,1.716-1.105,2.798-1.105     C211.078,263.448,212.911,265.279,212.911,267.54z"/>
			<path style="fill:#FFC843;" d="M256.653,243.664h112.381c7.168,0,12.979,5.811,12.979,12.979c0,0.443-0.023,0.885-0.067,1.318     c-0.021,0.2-0.025,0.37-0.019,0.513c-4.043,26.232-14.417,50.373-29.517,70.817c-2.394,2.852-5.979,4.667-9.994,4.667     c-3.318,0-6.338-1.247-8.642-3.288l-80.1-80.102c-0.004-0.005-0.001-0.005-0.008-0.012c-0.686-0.732-1.106-1.717-1.106-2.8     C252.561,245.497,254.393,243.664,256.653,243.664z"/>
			<path style="fill:#FFC843;" d="M232.745,267.54v112.382c0,7.168,5.81,12.978,12.977,12.978c0.445,0,0.884-0.023,1.318-0.066     c0.201-0.021,0.37-0.024,0.513-0.018c26.233-4.044,50.374-14.42,70.818-29.517c2.851-2.396,4.667-5.981,4.667-9.997     c0-3.317-1.249-6.336-3.288-8.64l-80.103-80.099c-0.004-0.005-0.005-0.003-0.013-0.011c-0.731-0.685-1.715-1.105-2.798-1.105     C234.577,263.448,232.745,265.279,232.745,267.54z"/>
			<path style="fill:#FFC843;" d="M189.002,223.828H76.621c-7.169,0-12.979-5.811-12.979-12.978c0-0.446,0.022-0.883,0.065-1.317     c0.021-0.201,0.025-0.37,0.019-0.514c4.043-26.233,14.418-50.373,29.517-70.817c2.394-2.852,5.98-4.668,9.995-4.668     c3.318,0,6.337,1.249,8.64,3.287l80.101,80.103c0.004,0.005,0.001,0.008,0.008,0.016c0.686,0.73,1.107,1.714,1.107,2.795     C193.095,221.997,191.262,223.828,189.002,223.828z"/>
			<path style="fill:#FFC843;" d="M212.911,199.954V87.571c0-7.167-5.811-12.979-12.978-12.979c-0.444,0-0.884,0.022-1.317,0.067     c-0.201,0.021-0.371,0.026-0.513,0.02c-26.232,4.044-50.374,14.416-70.818,29.517c-2.852,2.396-4.668,5.979-4.668,9.993     c0,3.319,1.248,6.337,3.288,8.643l80.102,80.1c0.005,0.005,0.007,0.002,0.013,0.007c0.732,0.688,1.716,1.109,2.798,1.109     C211.078,204.046,212.911,202.212,212.911,199.954z"/>
			<path style="fill:#FFC843;" d="M256.653,223.828h112.381c7.168,0,12.979-5.811,12.979-12.978c0-0.446-0.023-0.883-0.067-1.317     c-0.021-0.201-0.025-0.37-0.019-0.514c-4.043-26.233-14.417-50.373-29.517-70.817c-2.394-2.852-5.979-4.668-9.994-4.668     c-3.318,0-6.338,1.249-8.642,3.287l-80.1,80.103c-0.004,0.005-0.001,0.008-0.008,0.016c-0.686,0.73-1.106,1.714-1.106,2.795     C252.561,221.997,254.393,223.828,256.653,223.828z"/>
			<path style="fill:#FFC843;" d="M232.745,199.954V87.571c0-7.167,5.81-12.979,12.977-12.979c0.445,0,0.884,0.022,1.318,0.067     c0.201,0.021,0.37,0.026,0.513,0.02c26.233,4.044,50.374,14.416,70.818,29.517c2.851,2.396,4.667,5.979,4.667,9.993     c0,3.319-1.249,6.337-3.288,8.643l-80.103,80.1c-0.004,0.005-0.005,0.002-0.013,0.007c-0.731,0.688-1.715,1.109-2.798,1.109     C234.577,204.046,232.745,202.212,232.745,199.954z"/>
		</g>
		<path style="fill:#FFFFFF;" d="M303.707,194.555c-4.116,2.249-13.689,11.813-11.44,15.929c2.25,4.116,15.469,1.224,19.585-1.026    c4.115-2.249,5.628-7.408,3.379-11.524C312.981,193.819,307.821,192.306,303.707,194.555z"/>
		<path style="fill:#FFFFFF;" d="M247.076,152.28c-1.597,4.411-2.439,17.919,1.971,19.515c4.411,1.593,12.404-9.323,13.999-13.737    c1.594-4.407-0.687-9.278-5.098-10.872C253.538,145.589,248.669,147.871,247.076,152.28z"/>
		<path style="fill:#FFFFFF;" d="M148.962,274.286c4.115-2.248,13.688-11.813,11.439-15.928c-2.25-4.115-15.469-1.225-19.585,1.028    c-4.115,2.248-5.628,7.406-3.379,11.523C139.688,275.025,144.848,276.537,148.962,274.286z"/>
	</g>
	<path style="opacity:0.2;fill:#222222;" d="M222.828,46.702c-103.302,0-187.043,83.741-187.043,187.044   c0,103.299,83.742,187.043,187.043,187.043V46.702z"/>
	<g>
		<path style="fill:#77BC1F;" d="M151.247,402.488c23.636-23.637,16.789-64.07-13.518-94.379C114.094,284.473,51.77,255.3,0,251.243    c4.054,51.767,33.231,114.093,56.868,137.727C87.175,419.281,127.607,426.123,151.247,402.488z"/>
		<path style="opacity:0.2;fill:#218649;" d="M0,251.243c4.054,51.767,33.231,114.093,56.868,137.727    c30.307,30.311,70.739,37.152,94.379,13.518L0,251.243z"/>
		<path style="fill:#00953A;" d="M140.414,381.047l-20.605-20.604v-35.385c0-4.143-3.358-7.5-7.5-7.5c-4.142,0-7.5,3.357-7.5,7.5    v20.385l-26.048-26.049v-28.033c0-4.142-3.358-7.5-7.5-7.5c-4.142,0-7.5,3.358-7.5,7.5v13.033l-23.933-23.933    c-2.929-2.928-7.678-2.928-10.606,0c-2.929,2.93-2.929,7.678,0,10.607l23.933,23.933H40.12c-4.142,0-7.5,3.357-7.5,7.5    c0,4.142,3.358,7.5,7.5,7.5h28.034l26.047,26.047l-20.384,0.001c-4.143,0-7.5,3.358-7.5,7.5c0,4.143,3.358,7.5,7.5,7.5    l35.383-0.001l20.606,20.607c1.464,1.464,3.384,2.196,5.303,2.196c1.919,0,3.839-0.732,5.303-2.196    C143.343,388.725,143.343,383.977,140.414,381.047z"/>
	</g>
</g>















</svg>